# xmcd
#
# Track frame offsets:
#	150
#	15869
#	32045
#	47839
#	63674
#	79381
#	95824
#	110309
#	128163
#	142355
#	155717
#	175364
#	188152
#	204645
#	224290
#	242446
#	259372
#	277603
#	285782
#	305095
#
# Disc length: 4306 seconds
#
# Revision: 0
# Processed by: cddbd v1.5.2PL0 Copyright (c) Steve Scherf et al.
# Submitted via: EasyCDDAExtractor 16.0.1.1
#
DISCID=2810d014
DTITLE=Adelmario Coelho - Edição Especial Correio
DYEAR=2012
DGENRE=Forro
TTITLE0=Renascença
TTITLE1=Basta acreditar
TTITLE2=Conectar o que?
TTITLE3=Casa de tapera
TTITLE4=Assim não da
TTITLE5=Pout-pourri - Entupidinho de amor - Me bote no colo 
TTITLE6=Muitos brasis
TTITLE7=Sem voce só voce
TTITLE8=Dois em um
TTITLE9=O neném
TTITLE10=Não fale mal do meu pais
TTITLE11=Amor não faz mal a ninguem
TTITLE12=Xô aperreio
TTITLE13=Bahia forro e folia
TTITLE14=Tempo menino
TTITLE15=Amor emprestado
TTITLE16=Só pra te dizer
TTITLE17=Meu cenario
TTITLE18=O gonzagão
TTITLE19=Tudo pelo meu pais
EXTD=
EXTT0=
EXTT1=
EXTT2=
EXTT3=
EXTT4=
EXTT5=
EXTT6=
EXTT7=
EXTT8=
EXTT9=
EXTT10=
EXTT11=
EXTT12=
EXTT13=
EXTT14=
EXTT15=
EXTT16=
EXTT17=
EXTT18=
EXTT19=
PLAYORDER=
